<svg xmlns="http://www.w3.org/2000/svg" viewBox="0 0 128 128" role="img" aria-label="XCROW Support bot"><defs><linearGradient id="g" x1="0" x2="1"><stop stop-color="#2563eb"/><stop offset="1" stop-color="#06b6d4"/></linearGradient></defs><circle cx="64" cy="64" r="60" fill="url(#g)"/><path fill="#fff" d="M37 52a27 27 0 0 1 54 0v27a20 20 0 0 1-20 20H57a20 20 0 0 1-20-20z"/><path fill="#bfdbfe" d="M32 60h8v23h-8a8 8 0 0 1-8-8v-7a8 8 0 0 1 8-8m64 0h8a8 8 0 0 1 8 8v7a8 8 0 0 1-8 8h-8z"/><circle cx="54" cy="70" r="5" fill="#12213a"/><circle cx="74" cy="70" r="5" fill="#12213a"/><path d="M52 84c7 5 17 5 24 0" fill="none" stroke="#12213a" stroke-width="4" stroke-linecap="round"/><path d="M64 31v10" stroke="#fff" stroke-width="5" stroke-linecap="round"/><circle cx="64" cy="26" r="5" fill="#facc15"/></svg>
